<?xml version="1.0" standalone="no"?>
<!DOCTYPE svg PUBLIC "-//W3C//DTD SVG 20010904//EN"
 "http://www.w3.org/TR/2001/REC-SVG-20010904/DTD/svg10.dtd">
<svg version="1.0" xmlns="http://www.w3.org/2000/svg"
 width="1440.000000pt" height="700.000000pt" viewBox="0 0 1440.000000 700.000000"
 preserveAspectRatio="xMidYMid meet">

<g transform="translate(0.000000,700.000000) scale(0.100000,-0.100000)"
fill="#000000" stroke="none">
<path d="M0 5251 l0 -1749 72 -29 c40 -17 231 -97 423 -178 835 -351 1392
-546 1863 -650 533 -117 905 -114 1322 12 136 41 259 90 533 214 438 199 568
251 714 288 222 57 401 76 578 61 307 -25 484 -70 1200 -310 703 -236 999
-314 1349 -356 181 -22 482 -19 636 5 502 79 852 225 1790 746 605 336 842
454 1107 550 325 118 698 171 1041 147 460 -32 855 -138 1602 -431 85 -33 158
-61 163 -61 4 0 7 785 7 1745 l0 1745 -7200 0 -7200 0 0 -1749z"/>
</g>
</svg>
